<svg width="14" height="14" viewBox="0 0 14 14" fill="none" xmlns="http://www.w3.org/2000/svg">
<path d="M5.50112 7.76515V7.55644L0.644875 7.35794L0.312083 7.28711L0 6.87612L0.0320833 6.67121L0.311792 6.4832L5.54721 6.87524L5.57929 6.78372L1.3755 3.90006L1.16287 3.63073L1.07129 3.0431L1.45396 2.6219L2.09971 2.69186L5.39904 5.19921L5.49442 5.09631L3.39004 1.45509C3.39004 1.45509 3.23021 0.821112 3.23021 0.668957L3.66596 0.0775349L3.90717 0L4.73346 0.290027L7.04783 5.34175H7.13942L7.53258 1.02224L7.75192 0.491151L8.18767 0.204039L8.52804 0.366396L8.80775 0.766896L8.06371 4.93338H8.18767L8.32942 4.79171L10.7893 1.81945L11.1078 1.56819H11.7101L12.1535 2.22665L11.9548 2.90698L9.62267 6.14478L9.66525 6.20804L9.77492 6.19754L13.4146 5.49652L13.9005 5.7233L13.9536 5.95386L13.7626 6.42519L9.26071 7.45209L9.23621 7.47016L9.2645 7.50514L13.2635 7.74241L13.7238 8.04672L14 8.41895L13.9536 8.70227L13.2446 9.06313L9.28929 8.11464H9.18342V8.17789L12.4553 11.2172L12.53 11.5536L12.3419 11.8191L12.1432 11.7908L9.23621 9.44206H9.16154V9.54116L10.7885 11.9751L10.8593 12.6052L10.7602 12.8102L10.4058 12.934L10.0164 12.8632L7.72304 9.3412L7.64167 9.38755L7.2485 13.6211L7.06417 13.8374L6.63862 14L6.28425 13.7307L6.09583 13.2952L6.96092 8.9407L6.95421 8.91622L6.87283 8.92671L3.75696 12.8699L3.51575 12.9652L3.09779 12.7489L3.13658 12.3624L3.37021 12.0185L6.14688 8.51514L6.14308 8.42361H6.111L2.40975 10.8252L1.75087 10.9103L1.46708 10.645L1.50208 10.2095L1.63625 10.0679L5.50112 7.76515Z" fill="black"/>
</svg>
